<?xml version="1.0" standalone="no"?>
<!DOCTYPE svg PUBLIC "-//W3C//DTD SVG 20010904//EN"
 "http://www.w3.org/TR/2001/REC-SVG-20010904/DTD/svg10.dtd">
<svg version="1.0" xmlns="http://www.w3.org/2000/svg"
 width="200.000000pt" height="200.000000pt" viewBox="0 0 200.000000 200.000000"
 preserveAspectRatio="xMidYMid meet">

<g transform="translate(0.000000,200.000000) scale(0.100000,-0.100000)"
fill="#000000" stroke="none">
<path d="M898 1853 l-48 -4 0 -82 c0 -102 5 -111 58 -102 34 5 41 11 45 33 l4
27 2 -27 c1 -26 4 -28 47 -28 46 0 46 0 39 28 -3 15 -6 50 -5 78 0 31 -4 55
-12 61 -17 15 -71 21 -130 16z m59 -95 c-3 -8 -6 -5 -6 6 -1 11 2 17 5 13 3
-3 4 -12 1 -19z"/>
<path d="M642 1804 c-23 -16 -30 -58 -12 -69 6 -4 8 -10 5 -15 -6 -10 14 -70
24 -70 4 0 13 -11 19 -25 11 -23 13 -24 44 -10 23 9 32 19 30 32 -2 10 -4 31
-3 47 1 38 -17 69 -35 62 -8 -3 -14 -1 -14 3 0 5 5 11 11 13 7 2 9 13 5 26 -9
26 -41 29 -74 6z"/>
<path d="M1122 1809 c-46 -18 -63 -109 -26 -140 21 -18 97 -29 112 -17 21 18
15 48 -10 48 -13 0 -30 5 -38 10 -19 12 -4 13 37 1 30 -9 32 -7 38 19 8 36 -8
67 -37 75 -45 13 -53 13 -76 4z"/>
<path d="M1298 1775 c-20 -11 -29 -27 -37 -65 -17 -80 -15 -89 24 -106 46 -19
50 -18 64 12 9 21 9 30 -1 42 -11 13 -10 15 5 9 13 -5 20 1 30 26 18 42 11 72
-19 86 -31 14 -33 14 -66 -4z"/>
<path d="M523 1690 c-17 -10 -37 -28 -43 -39 -21 -40 34 -121 81 -121 18 0 99
56 99 68 0 4 -7 16 -15 26 -13 18 -16 18 -32 4 -10 -8 -25 -18 -33 -22 -8 -4
0 6 19 22 l35 29 -27 27 c-31 31 -42 32 -84 6z m42 -60 c3 -5 1 -10 -4 -10 -6
0 -11 5 -11 10 0 6 2 10 4 10 3 0 8 -4 11 -10z"/>
<path d="M1416 1673 c-19 -25 -19 -26 -1 -39 11 -8 22 -14 27 -14 4 0 8 -5 8
-11 0 -8 -4 -8 -14 0 -22 18 -70 10 -74 -12 -5 -23 25 -57 50 -57 10 0 18 -7
18 -15 0 -9 11 -21 25 -27 29 -13 34 -8 75 68 23 40 23 43 7 68 -14 20 -84 67
-99 66 -2 0 -12 -12 -22 -27z"/>
<path d="M372 1566 c-18 -23 -20 -24 -36 -8 -16 16 -19 15 -42 -13 l-25 -30
72 -68 73 -67 28 27 29 27 -38 33 c-21 18 -33 32 -26 33 6 0 26 -12 44 -27
l32 -27 24 29 25 29 -48 42 c-56 49 -84 54 -112 20z"/>
<path d="M1534 1527 l-55 -52 29 -28 29 -28 30 25 c21 18 33 22 40 15 8 -8 20
-4 42 12 36 27 38 35 11 44 -11 3 -20 12 -20 19 0 14 -31 46 -44 46 -4 0 -32
-24 -62 -53z"/>
<path d="M1086 1505 c-24 -12 -36 -13 -56 -5 -15 6 -38 8 -52 5 -32 -8 -118
-99 -118 -124 0 -32 21 -70 42 -77 16 -5 18 -11 12 -32 -4 -15 -8 -36 -9 -47
-1 -11 -12 -51 -24 -88 -19 -56 -25 -66 -37 -56 -22 18 -18 -23 7 -70 16 -31
19 -49 14 -85 -5 -28 -12 -46 -20 -46 -11 0 -56 -20 -84 -38 -3 -1 7 -15 21
-30 25 -26 26 -28 11 -64 -8 -21 -19 -38 -23 -38 -5 0 -16 20 -26 45 -9 25
-21 45 -25 45 -5 0 -9 43 -9 95 0 78 3 95 15 95 8 0 15 -6 15 -14 0 -21 21
-31 31 -15 14 22 10 86 -6 103 -8 8 -24 18 -35 21 -27 9 -12 36 36 64 30 18
35 26 30 46 -5 18 -1 27 14 35 11 6 20 21 20 33 0 13 5 28 12 35 8 8 8 12 1
12 -18 0 -36 -29 -30 -49 3 -14 1 -18 -11 -14 -18 7 -43 -23 -35 -43 3 -8 0
-20 -6 -28 -6 -7 -8 -16 -4 -20 4 -3 -4 -5 -18 -4 -20 3 -25 -2 -27 -25 -3
-22 -7 -27 -21 -22 -10 3 -47 12 -83 19 -35 7 -73 19 -85 26 -31 20 -62 6
-130 -58 -47 -43 -63 -65 -63 -85 0 -28 24 -47 58 -47 28 0 197 -169 183 -183
-15 -15 -14 -68 3 -103 8 -16 22 -46 32 -68 25 -54 85 -81 167 -73 54 5 58 4
54 -14 -9 -33 13 -21 29 16 9 23 14 71 14 145 0 95 3 114 19 131 18 20 18 20
17 -19 0 -34 5 -46 42 -81 l42 -41 16 31 c9 19 14 47 12 71 l-4 39 81 -4 c53
-2 89 1 107 10 15 7 30 13 33 13 3 0 8 0 12 0 3 0 -1 8 -10 18 -13 14 -14 21
-5 30 16 16 42 0 67 -41 l21 -34 -45 -91 c-25 -51 -45 -95 -45 -98 0 -13 39
29 45 47 6 17 9 16 43 -11 21 -16 52 -32 70 -36 43 -9 47 -18 22 -54 -60 -84
-183 -78 -239 13 -11 18 -25 54 -32 80 -7 31 -15 45 -21 39 -16 -16 19 -118
53 -156 38 -44 105 -71 154 -62 22 5 54 23 80 47 50 46 71 106 62 174 -9 60
-3 70 58 105 62 36 138 106 132 123 -2 7 -14 11 -26 10 -21 -3 -21 -2 -6 27
21 41 19 53 -8 48 -20 -4 -23 -1 -19 19 3 18 0 23 -15 23 -13 0 -32 -18 -53
-52 -27 -43 -34 -49 -38 -33 -6 32 -17 38 -59 30 -23 -4 -55 -21 -82 -45 l-44
-38 17 -48 16 -49 -31 35 c-16 19 -34 45 -39 58 -5 12 -16 22 -24 22 -13 0
-12 7 4 44 16 38 17 46 5 56 -12 10 -12 15 2 36 15 24 15 27 -5 53 -31 43 -18
83 28 86 22 2 42 12 57 30 26 30 29 53 9 80 -7 10 -11 26 -9 36 6 22 -22 76
-46 89 -11 5 -29 10 -41 10 -11 0 -23 6 -26 14 -16 40 -95 64 -138 41z m83
-20 c30 -15 41 -33 41 -68 1 -21 1 -21 15 -3 34 45 106 -23 85 -80 -9 -22 -8
-25 4 -21 25 10 31 -32 9 -62 -23 -29 -57 -38 -79 -20 -12 10 -12 13 3 25 16
11 13 12 -18 7 -41 -6 -61 11 -34 30 14 11 10 12 -23 9 -32 -3 -42 0 -56 19
-13 19 -16 20 -16 6 0 -21 -18 -22 -42 -1 -14 13 -21 14 -32 5 -23 -19 -60
-10 -64 17 -4 26 -22 20 -22 -8 0 -29 -17 -33 -40 -10 -30 30 -25 64 15 104
64 64 91 70 130 29 24 -27 25 -27 25 -6 0 40 49 54 99 28z m-204 -185 c-7 -12
40 -24 54 -15 6 3 11 13 11 21 0 17 4 17 28 5 9 -6 30 -12 45 -16 15 -3 25
-10 22 -15 -4 -6 4 -9 17 -7 16 1 23 -3 23 -16 0 -18 21 -37 40 -36 6 0 -1 6
-15 15 l-25 15 25 -7 c29 -8 50 -33 43 -51 -7 -17 -6 -18 -59 20 -44 31 -49
32 -148 32 -99 0 -103 1 -95 20 4 11 10 28 13 38 3 10 10 15 16 12 6 -4 8 -10
5 -15z m-165 -64 c0 -3 -4 -8 -10 -11 -5 -3 -10 -1 -10 4 0 6 5 11 10 11 6 0
10 -2 10 -4z m327 -18 c35 -10 35 -14 17 -115 -8 -42 15 -45 45 -7 22 28 54
29 59 1 2 -9 -11 -31 -28 -49 -25 -25 -34 -28 -40 -17 -11 16 -12 15 -38 -37
-70 -139 -227 -151 -258 -20 -6 25 -4 28 10 23 9 -4 28 -2 42 4 21 7 31 6 44
-6 27 -25 96 -19 125 10 14 13 25 30 25 37 0 9 -3 9 -12 0 -16 -16 -61 -15
-76 0 -10 10 -17 10 -32 0 -48 -30 -80 4 -36 39 14 11 26 25 26 30 0 5 -9 1
-19 -8 -51 -46 -63 -51 -89 -34 -12 7 -11 18 4 66 18 56 19 57 52 51 23 -3 32
-1 29 7 -2 7 -15 12 -29 12 -40 -1 -22 23 20 27 47 5 118 -1 159 -14z m-345
-50 c-8 -8 -9 -4 -5 13 4 13 8 18 11 10 2 -7 -1 -18 -6 -23z m-266 -29 c3 -6
-8 -26 -26 -44 -23 -24 -39 -32 -61 -30 -30 3 -47 -9 -30 -19 5 -4 12 -2 16 4
4 6 11 8 16 4 6 -4 3 -14 -7 -25 -17 -19 -18 -19 -37 2 -10 11 -17 22 -16 24
38 35 117 95 126 95 6 0 15 -5 19 -11z m33 -16 c-6 -36 32 -54 60 -29 16 15
22 15 62 1 85 -29 89 -34 87 -84 -1 -34 -2 -38 -5 -15 l-4 31 -72 2 c-40 1
-80 4 -90 7 -10 3 -24 0 -32 -6 -9 -7 -31 -10 -57 -6 -33 5 -38 4 -23 -4 18
-9 18 -10 -4 -6 -14 3 -32 0 -40 -7 -9 -6 -3 3 13 20 25 28 30 30 43 17 9 -9
23 -12 37 -8 55 17 55 50 0 41 l-34 -6 22 30 c20 27 39 38 37 22z m51 -12 c0
-6 -9 -9 -20 -8 -11 1 -20 5 -20 9 0 4 9 8 20 8 11 0 20 -4 20 -9z m-50 -51
c0 -5 -15 -10 -32 -10 -25 0 -29 3 -18 10 20 13 50 13 50 0z m-175 -50 c0 -13
-6 -25 -14 -28 -8 -3 -11 0 -7 6 3 6 1 12 -5 14 -5 2 -7 11 -3 21 9 24 29 16
29 -13z m1215 25 c0 -13 -50 -102 -63 -113 -11 -10 -17 -9 -26 2 -9 10 -7 17
5 27 9 8 27 31 40 51 21 33 44 50 44 33z m-883 -21 c-7 -8 -268 -36 -274 -30
-5 4 76 22 132 29 52 7 149 7 142 1z m923 -21 c0 -13 -74 -106 -87 -111 -25
-8 -12 24 28 71 37 43 59 58 59 40z m-1215 -13 c-3 -5 -11 -10 -16 -10 -6 0
-7 5 -4 10 3 6 11 10 16 10 6 0 7 -4 4 -10z m239 -15 c-16 -25 -18 -25 -36 -8
-18 17 -19 18 -1 24 10 4 26 8 36 8 16 1 16 -1 1 -24z m40 -48 c-2 -127 -1
-124 -35 -136 -51 -18 -62 -15 -55 14 5 20 3 25 -11 25 -20 0 -171 136 -161
145 3 4 29 -10 58 -31 l51 -37 23 22 c12 11 30 21 40 21 14 0 16 -6 10 -35 -4
-23 -2 -35 5 -35 6 0 11 7 11 16 0 16 50 103 60 104 3 0 5 -33 4 -73z m784 45
c2 -15 -2 -22 -13 -22 -9 0 -13 5 -10 10 4 6 -7 10 -24 10 -36 0 -42 17 -8 23
38 8 52 3 55 -21z m-913 -12 c8 -13 -1 -13 -26 0 -10 6 -19 15 -19 21 0 11 35
-5 45 -21z m16 13 c13 -16 12 -17 -3 -4 -10 7 -18 15 -18 17 0 8 8 3 21 -13z
m-56 -18 c18 -15 24 -25 15 -25 -8 1 -28 12 -45 25 -18 15 -24 25 -15 25 8 -1
29 -12 45 -25z m675 -11 l40 -26 -25 -20 c-36 -28 -107 -57 -158 -64 -67 -10
-65 11 5 30 33 9 58 19 55 23 -3 3 -20 0 -38 -6 -18 -6 -41 -11 -53 -10 -14 1
-10 4 12 10 18 6 50 28 70 49 20 22 40 39 45 40 4 0 25 -12 47 -26z m175 -14
c-5 -23 -3 -30 9 -30 9 0 18 -11 22 -25 3 -14 10 -22 15 -19 6 3 7 13 4 23 -3
11 5 27 21 42 l26 24 34 -37 c19 -21 34 -46 34 -57 0 -27 -99 -76 -135 -67
-14 4 -25 2 -25 -4 0 -9 17 -14 48 -13 6 1 12 -11 12 -24 0 -23 -3 -25 -30
-20 -63 13 -106 67 -66 83 12 5 11 15 -5 62 -11 31 -16 58 -11 60 5 1 18 9 28
17 26 20 26 19 19 -15z m63 11 c-4 -17 -35 -38 -43 -29 -4 4 -4 15 -1 25 7 22
48 26 44 4z m-549 -15 c9 -10 8 -16 -4 -26 -13 -11 -15 -8 -15 14 0 30 3 32
19 12z m721 -36 c-48 -42 -60 -48 -60 -27 0 18 62 66 85 66 16 0 11 -8 -25
-39z m-690 -4 c0 -15 -18 -31 -26 -23 -7 7 7 37 17 37 5 0 9 -6 9 -14z m-68
-21 c-33 -15 -36 -35 -4 -35 14 0 15 2 2 10 -12 8 -12 10 3 16 29 11 42 -11
17 -29 -21 -15 -54 -13 -78 6 -9 7 -4 14 20 28 18 10 42 18 53 18 14 0 10 -4
-13 -14z m125 7 c17 -11 1 -32 -27 -37 -28 -5 -44 13 -28 32 12 14 37 17 55 5z
m227 -14 c-5 -8 -2 -9 9 -5 9 3 19 1 23 -6 4 -7 4 -9 -1 -5 -4 4 -17 3 -28 -3
-15 -9 -18 -8 -12 2 6 9 3 10 -8 6 -43 -17 -49 -17 -17 2 42 24 43 24 34 9z
m-204 -85 c0 -62 -9 -68 -46 -32 -22 21 -34 42 -33 58 l1 26 12 -28 c14 -31
35 -49 48 -41 14 9 8 24 -7 18 -10 -4 -18 2 -24 17 -7 20 -5 25 13 30 26 7 36
-6 36 -48z m-271 -26 c1 -21 -25 -32 -96 -42 l-53 -7 0 37 c0 20 4 34 9 31 5
-3 35 2 67 12 63 19 71 16 73 -31z m118 -58 c-3 -69 -10 -104 -19 -110 -25
-16 -94 -21 -136 -10 -41 11 -70 45 -87 99 -6 20 -3 22 30 22 19 0 52 7 72 15
33 14 38 14 54 -1 16 -15 19 -12 41 35 12 28 29 51 37 51 11 0 13 -18 8 -101z
m562 15 c29 -5 41 -11 40 -23 0 -10 -2 -11 -6 -3 -8 20 -33 14 -33 -9 0 -16 5
-20 20 -16 22 6 28 -8 7 -16 -22 -8 -89 20 -119 51 -25 24 -28 32 -19 55 l10
26 30 -29 c18 -19 44 -32 70 -36z"/>
<path d="M1045 1290 c3 -5 18 -10 32 -10 32 0 28 5 -10 14 -19 4 -26 3 -22 -4z"/>
<path d="M1077 1193 c-13 -13 -7 -21 12 -16 10 3 22 0 25 -6 13 -20 27 -12 16
9 -10 19 -40 27 -53 13z"/>
<path d="M923 1147 c-8 -16 -7 -25 2 -34 17 -16 35 4 32 35 -2 29 -21 28 -34
-1z"/>
<path d="M1061 1128 c-5 -13 -6 -28 -4 -34 7 -19 43 -4 43 18 0 12 -4 17 -12
12 -8 -5 -9 -2 -5 9 3 10 2 17 -4 17 -5 0 -13 -10 -18 -22z"/>
<path d="M1203 1098 c-10 -17 -11 -58 -1 -52 4 3 8 14 8 24 0 10 8 24 18 29
16 10 16 10 0 11 -9 0 -20 -6 -25 -12z"/>
<path d="M933 962 c11 -10 20 -11 32 -4 15 8 13 10 -14 14 -28 4 -30 3 -18
-10z"/>
<path d="M622 1068 c3 -7 15 -14 29 -16 28 -3 57 13 45 25 -5 4 -11 2 -13 -4
-3 -7 -16 -13 -29 -13 -14 0 -22 4 -19 10 3 6 1 10 -5 10 -7 0 -10 -6 -8 -12z"/>
<path d="M585 1050 c3 -5 8 -10 11 -10 2 0 4 5 4 10 0 6 -5 10 -11 10 -5 0 -7
-4 -4 -10z"/>
<path d="M718 1043 c6 -2 18 -2 25 0 6 3 1 5 -13 5 -14 0 -19 -2 -12 -5z"/>
<path d="M590 725 c0 -8 7 -15 15 -15 8 0 15 7 15 15 0 8 -7 15 -15 15 -8 0
-15 -7 -15 -15z"/>
<path d="M237 1442 c-62 -71 -61 -144 3 -177 60 -31 109 -16 140 45 26 52 25
64 -7 81 -16 7 -31 15 -35 17 -4 2 -14 -11 -23 -28 -9 -18 -19 -29 -22 -26 -3
3 2 18 12 32 17 26 17 28 -1 41 -40 30 -51 33 -67 15z"/>
<path d="M1640 1434 c-55 -37 -66 -82 -28 -108 12 -9 19 -16 15 -16 -5 0 0
-13 10 -30 9 -16 20 -30 24 -30 3 0 43 24 87 53 l81 52 -20 33 c-23 35 -29 38
-46 21 -7 -7 -15 -2 -27 15 -19 31 -59 34 -96 10z m50 -73 c0 -5 -7 -11 -15
-15 -15 -5 -20 5 -8 17 9 10 23 9 23 -2z"/>
<path d="M763 1317 c-4 -7 -20 -20 -35 -30 -16 -10 -28 -27 -28 -38 0 -13 -11
-25 -35 -35 -31 -13 -35 -18 -35 -52 l1 -37 20 28 c11 15 29 27 39 27 25 0 53
29 46 47 -4 9 6 27 24 43 16 15 30 35 30 44 0 19 -16 21 -27 3z m7 -32 c0 -3
-11 -10 -25 -15 -19 -7 -25 -17 -25 -40 0 -21 -5 -30 -16 -30 -12 0 -14 3 -6
13 5 6 12 23 14 37 2 16 12 27 28 31 14 4 26 7 28 8 1 1 2 -1 2 -4z m-106 -99
c-21 -15 -30 -14 -19 3 3 6 14 11 23 11 13 0 13 -2 -4 -14z"/>
<path d="M636 1277 c-5 -10 -21 -24 -37 -32 -38 -20 -52 -47 -39 -79 13 -35
30 -33 30 4 0 23 6 33 25 40 29 11 38 29 33 62 -4 20 -5 21 -12 5z m-16 -47
c-14 -11 -31 -25 -37 -30 -10 -8 -13 -7 -13 5 0 8 15 21 33 29 43 19 46 19 17
-4z"/>
<path d="M1467 1206 c-15 -12 -16 -18 -7 -35 13 -25 23 -26 39 -7 9 11 10 20
1 35 -13 25 -10 24 -33 7z m25 -21 c0 -5 -5 -11 -11 -13 -6 -2 -11 4 -11 13 0
9 5 15 11 13 6 -2 11 -8 11 -13z"/>
<path d="M1381 1180 c-8 -14 -20 -29 -27 -33 -11 -6 -10 -14 8 -37 l21 -29 24
25 c21 23 22 28 10 43 -8 9 -17 25 -19 36 -4 19 -5 18 -17 -5z m21 -62 c-17
-17 -47 9 -30 29 10 12 13 12 27 -1 11 -12 12 -19 3 -28z"/>
<path d="M1474 1102 c-16 -26 7 -60 25 -38 9 11 10 20 1 35 -13 25 -12 25 -26
3z m26 -22 c0 -5 -4 -10 -10 -10 -5 0 -10 5 -10 10 0 6 5 10 10 10 6 0 10 -4
10 -10z"/>
<path d="M1091 660 c-1 -26 33 -110 44 -110 3 0 3 5 -1 11 -4 7 -15 37 -25 68
-11 36 -17 47 -18 31z"/>
<path d="M810 385 c0 -8 5 -15 10 -15 6 0 10 -5 10 -11 0 -5 -4 -7 -10 -4 -5
3 -10 1 -10 -4 0 -6 7 -11 15 -11 17 0 20 26 4 36 -8 4 -7 9 2 15 11 7 10 9
-3 9 -10 0 -18 -7 -18 -15z"/>
<path d="M862 370 c0 -19 2 -27 5 -17 2 9 2 25 0 35 -3 9 -5 1 -5 -18z"/>
<path d="M881 366 c0 -26 2 -28 8 -11 l8 20 5 -20 c4 -14 6 -11 7 11 1 21 -4
31 -14 31 -10 0 -15 -10 -14 -31z"/>
<path d="M930 370 c0 -20 5 -30 15 -30 8 0 15 5 15 11 0 5 -4 7 -10 4 -5 -3
-10 3 -10 14 0 10 6 22 13 24 7 3 5 6 -5 6 -13 1 -18 -7 -18 -29z"/>
<path d="M980 370 c0 -22 5 -30 18 -30 12 0 13 3 5 8 -7 4 -11 18 -8 30 2 12
0 22 -6 22 -5 0 -9 -13 -9 -30z"/>
<path d="M1055 370 c0 -16 3 -30 8 -30 4 0 7 14 7 30 0 17 -3 30 -7 30 -5 0
-8 -13 -8 -30z"/>
<path d="M1092 370 c1 -16 6 -30 10 -30 4 0 8 14 8 30 0 17 -5 30 -10 30 -6 0
-9 -13 -8 -30z"/>
<path d="M1134 370 c0 -16 3 -30 8 -30 4 0 8 14 8 30 0 17 -4 30 -8 30 -5 0
-8 -13 -8 -30z"/>
<path d="M1174 370 c0 -16 3 -30 8 -30 4 0 8 14 8 30 0 17 -4 30 -8 30 -5 0
-8 -13 -8 -30z"/>
</g>
</svg>
